# This file uses centimeters as units for non-parametric coordinates.

mtllib Hammer_Roomba_FBX.mtl
g default
v -0.235128 1.405001 0.301069
v 0.295565 1.405001 0.301069
v -0.235128 2.471906 0.301069
v 0.295565 2.471906 0.301069
v -0.235128 2.471906 -0.393764
v 0.295565 2.471906 -0.393764
v -0.235128 1.405001 -0.393764
v 0.295565 1.405001 -0.393764
v -0.148132 6.784491 0.187166
v 0.208570 6.784491 0.187166
v 0.208570 6.784491 -0.279861
v -0.148132 6.784491 -0.279861
v -0.221907 3.127316 0.283759
v 0.282344 3.127316 0.283759
v 0.282344 3.127316 -0.376454
v -0.221907 3.127316 -0.376454
v -0.310166 2.314106 0.039783
v -0.293206 3.033246 0.036138
v -0.198568 7.046033 0.015804
v 0.259005 7.046033 0.015804
v 0.353643 3.033246 0.036138
v 0.370603 2.314106 0.039783
v 0.370603 1.258353 0.039783
v -0.310166 1.258353 0.039783
v -0.310166 1.262888 -0.121266
v 0.370603 1.262888 -0.121266
v 0.370603 2.316842 -0.121266
v 0.353643 3.034876 -0.115736
v 0.259005 7.041499 -0.084877
v -0.198568 7.041499 -0.084877
v -0.293206 3.034876 -0.115736
v -0.310166 2.316842 -0.121266
v 0.042623 1.218399 0.367125
v 0.046130 0.853560 0.064822
v 0.046130 0.858538 -0.143046
v 0.042623 1.218399 -0.459820
v 0.042623 2.185631 -0.494764
v 0.042004 2.905049 -0.472421
v 0.038556 6.919394 -0.347747
v 0.040913 7.201500 -0.096077
v 0.040913 7.206478 0.033873
v 0.038556 6.919394 0.255052
v 0.042004 2.905049 0.379725
v 0.042623 2.185631 0.402069
v -0.158500 6.299273 0.200740
v -0.211867 6.304344 0.018662
v -0.211867 6.300674 -0.089213
v -0.158500 6.299273 -0.293435
v 0.039040 6.291360 -0.365267
v 0.218937 6.299273 -0.293435
v 0.272305 6.300674 -0.089213
v 0.272305 6.304344 0.018662
v 0.218937 6.299273 0.200740
v 0.039040 6.291360 0.272572
v -0.166046 5.896482 0.210620
v 0.039393 5.880751 0.285324
v 0.226483 5.896482 0.210620
v 0.281985 5.893892 0.020742
v 0.281985 5.890854 -0.092370
v 0.226483 5.896482 -0.303315
v 0.039393 5.880751 -0.378019
v -0.166046 5.896482 -0.303315
v -0.221547 5.890854 -0.092370
v -0.221547 5.893892 0.020742
v 0.234317 6.316120 0.220877
v 0.039759 6.307563 0.298563
v 0.040141 5.863490 0.312354
v 0.242478 5.880503 0.231562
v 0.292034 6.317636 -0.092706
v 0.292034 6.321605 0.023960
v 0.302503 5.877702 0.026209
v 0.302503 5.874417 -0.096120
v 0.242478 5.880503 -0.324258
v 0.040141 5.863490 -0.405050
v 0.039759 6.307563 -0.391259
v 0.234317 6.316120 -0.313572
v -0.231597 6.321605 0.023960
v -0.231597 6.317636 -0.092706
v -0.242066 5.874417 -0.096120
v -0.242066 5.877702 0.026209
v -0.173880 6.316120 0.220877
v -0.182041 5.880503 0.231562
v -0.182041 5.880503 -0.324258
v -0.173880 6.316120 -0.313572
v -0.788604 6.265393 0.374533
v 0.922304 6.265393 0.374533
v -0.788604 8.307687 0.374533
v 0.922304 8.307687 0.374533
v -0.788604 8.307687 -0.482136
v 0.922304 8.307687 -0.482136
v -0.788604 6.265393 -0.482136
v 0.922304 6.265393 -0.482136
v -0.690597 6.063320 1.652630
v 0.824298 6.063320 1.652630
v 0.824298 8.475841 1.652630
v -0.690597 8.475841 1.652630
v -0.690597 8.475840 -1.760232
v 0.824297 8.475840 -1.760232
v 0.824297 6.063320 -1.760232
v -0.690597 6.063320 -1.760232
v -0.637788 6.164380 1.778818
v 0.771489 6.164380 1.778818
v 0.771489 8.408701 1.778818
v -0.637788 8.408701 1.778818
v -0.637788 8.408700 -1.886421
v 0.771489 8.408700 -1.886421
v 0.771489 6.164380 -1.886421
v -0.637788 6.164380 -1.886421
v -0.783981 6.035047 1.356055
v 0.917682 6.035047 1.356055
v 0.917682 8.514716 1.356055
v -0.783981 8.514716 1.356055
v -0.786317 8.510707 -1.435439
v 0.920018 8.510707 -1.435439
v 0.920018 6.039864 -1.435439
v -0.786317 6.039864 -1.435439
v -1.210241 7.582426 0.391181
v -1.203341 7.517251 1.410851
v -1.063929 7.516175 1.718954
v -0.985092 7.560738 1.850047
v 1.118793 7.560738 1.850047
v 1.197630 7.516175 1.718954
v 1.337041 7.517251 1.410851
v 1.343942 7.582426 0.391181
v 1.343942 7.582426 -0.498784
v 1.340529 7.518829 -1.489139
v 1.197629 7.516174 -1.826556
v 1.118792 7.560737 -1.957649
v -0.985092 7.560737 -1.957649
v -1.063929 7.516174 -1.826556
v -1.206828 7.518829 -1.489139
v -1.210241 7.582426 -0.498784
v -1.159986 7.121155 0.386761
v -1.153357 6.977718 1.396304
v -1.019432 6.988658 1.701346
v -0.943697 7.063317 1.831137
v 1.077398 7.063317 1.831137
v 1.153132 6.988658 1.701346
v 1.287058 6.977718 1.396304
v 1.293687 7.121155 0.386761
v 1.293687 7.121155 -0.494365
v 1.290408 6.980876 -1.474882
v 1.153132 6.988657 -1.808949
v 1.077397 7.063316 -1.938740
v -0.943697 7.063316 -1.938740
v -1.019432 6.988657 -1.808949
v -1.156708 6.980876 -1.474882
v -1.159986 7.121155 -0.494365
vt 0.375000 0.000000
vt 0.625000 0.000000
vt 0.375000 0.250000
vt 0.625000 0.250000
vt 0.375000 0.500000
vt 0.625000 0.500000
vt 0.375000 0.750000
vt 0.625000 0.750000
vt 0.375000 1.000000
vt 0.625000 1.000000
vt 0.875000 0.000000
vt 0.875000 0.250000
vt 0.125000 0.000000
vt 0.125000 0.250000
vt 0.375000 0.250000
vt 0.625000 0.250000
vt 0.625000 0.500000
vt 0.375000 0.500000
vt 0.375000 0.250000
vt 0.625000 0.250000
vt 0.625000 0.500000
vt 0.375000 0.500000
vt 0.276314 0.250000
vt 0.375000 0.348686
vt 0.375000 0.348686
vt 0.375000 0.348686
vt 0.625000 0.348686
vt 0.625000 0.348686
vt 0.625000 0.348686
vt 0.723686 0.250000
vt 0.625000 0.901314
vt 0.723686 0.000000
vt 0.276314 0.000000
vt 0.375000 0.901314
vt 0.210065 0.000000
vt 0.375000 0.835065
vt 0.625000 0.835065
vt 0.789935 0.000000
vt 0.625000 0.414935
vt 0.789935 0.250000
vt 0.625000 0.414935
vt 0.625000 0.414935
vt 0.375000 0.414935
vt 0.375000 0.414935
vt 0.210065 0.250000
vt 0.375000 0.414935
vt 0.505843 0.000000
vt 0.505843 1.000000
vt 0.505843 0.901314
vt 0.505843 0.835065
vt 0.505843 0.750000
vt 0.505843 0.500000
vt 0.505843 0.500000
vt 0.505843 0.500000
vt 0.505843 0.414935
vt 0.505843 0.348686
vt 0.505843 0.250000
vt 0.505843 0.250000
vt 0.505843 0.250000
vt 0.375000 0.250000
vt 0.375000 0.348686
vt 0.375000 0.414935
vt 0.375000 0.500000
vt 0.505843 0.500000
vt 0.625000 0.500000
vt 0.625000 0.414935
vt 0.625000 0.348686
vt 0.625000 0.250000
vt 0.505843 0.250000
vt 0.375000 0.250000
vt 0.505843 0.250000
vt 0.625000 0.250000
vt 0.625000 0.348686
vt 0.625000 0.414935
vt 0.625000 0.500000
vt 0.505843 0.500000
vt 0.375000 0.500000
vt 0.375000 0.414935
vt 0.375000 0.348686
vt 0.625000 0.250000
vt 0.505843 0.250000
vt 0.505843 0.250000
vt 0.625000 0.250000
vt 0.625000 0.414935
vt 0.625000 0.348686
vt 0.625000 0.348686
vt 0.625000 0.414935
vt 0.625000 0.500000
vt 0.505843 0.500000
vt 0.505843 0.500000
vt 0.625000 0.500000
vt 0.375000 0.348686
vt 0.375000 0.414935
vt 0.375000 0.414935
vt 0.375000 0.348686
vt 0.375000 0.250000
vt 0.375000 0.250000
vt 0.375000 0.500000
vt 0.375000 0.500000
vt 0.375000 0.107825
vt 0.625000 0.107825
vt 0.625000 0.250000
vt 0.375000 0.250000
vt 0.375000 0.250000
vt 0.625000 0.250000
vt 0.625000 0.500000
vt 0.375000 0.500000
vt 0.375000 0.500000
vt 0.625000 0.500000
vt 0.625000 0.642175
vt 0.375000 0.642175
vt 0.375000 0.750000
vt 0.625000 0.750000
vt 0.625000 1.000000
vt 0.375000 1.000000
vt 0.625000 0.107825
vt 0.875000 0.107825
vt 0.875000 0.250000
vt 0.125000 0.107825
vt 0.375000 0.107825
vt 0.125000 0.250000
vt 0.375000 0.000000
vt 0.625000 0.000000
vt 0.625000 0.000000
vt 0.375000 0.000000
vt 0.625000 0.107825
vt 0.625000 0.107825
vt 0.625000 0.250000
vt 0.625000 0.250000
vt 0.375000 0.250000
vt 0.375000 0.250000
vt 0.375000 0.107825
vt 0.375000 0.107825
vt 0.375000 0.500000
vt 0.625000 0.500000
vt 0.625000 0.500000
vt 0.375000 0.500000
vt 0.625000 0.642175
vt 0.625000 0.642175
vt 0.625000 0.750000
vt 0.375000 0.750000
vt 0.375000 0.750000
vt 0.625000 0.750000
vt 0.375000 0.642175
vt 0.375000 0.642175
vt 0.625000 0.000000
vt 0.375000 0.000000
vt 0.375000 0.750000
vt 0.625000 0.750000
vt 0.375000 0.000000
vt 0.625000 0.000000
vt 0.625000 0.642175
vt 0.375000 0.642175
vt 0.375000 0.079200
vt 0.375000 0.079200
vt 0.375000 0.079200
vt 0.375000 0.079200
vt 0.625000 0.079200
vt 0.625000 0.079200
vt 0.625000 0.079200
vt 0.625000 0.079200
vt 0.875000 0.079200
vt 0.625000 0.670800
vt 0.625000 0.670800
vt 0.625000 0.670800
vt 0.625000 0.670800
vt 0.375000 0.670800
vt 0.375000 0.670800
vt 0.375000 0.670800
vt 0.375000 0.670800
vt 0.125000 0.079200
vt 0.875000 0.000000
vt 0.125000 0.000000
vn 0.000667 -0.008320 0.999965
vn -0.003175 -0.351435 0.936207
vn 0.724187 -0.110934 0.680623
vn 0.742854 0.016543 0.669249
vn -0.003157 0.799129 -0.601151
vn -0.003667 0.782674 0.622421
vn 0.861174 0.342562 0.375539
vn 0.870147 0.339882 -0.356825
vn -0.003255 -0.365844 -0.930670
vn 0.000667 -0.008320 -0.999965
vn 0.754393 0.016545 -0.656214
vn 0.733197 -0.115399 -0.670153
vn -0.004019 -0.902421 0.430837
vn -0.003523 -0.900417 -0.435014
vn 0.933910 -0.254687 -0.250892
vn 0.931192 -0.260360 0.255137
vn 0.984175 0.007257 0.177052
vn 0.985004 0.007474 -0.172370
vn -0.985004 0.007474 -0.172370
vn -0.925586 -0.276378 -0.258661
vn -0.922577 -0.282404 0.262868
vn -0.984175 0.007257 0.177052
vn 0.743792 0.029934 0.667740
vn 0.000291 0.031322 0.999509
vn -0.000686 0.031321 0.999509
vn 0.727988 0.030063 0.684930
vn 0.985757 0.024407 -0.166396
vn 0.983367 0.024371 0.179986
vn 0.983676 0.024368 0.178289
vn 0.985388 0.024414 -0.168565
vn 0.755662 0.030191 -0.654266
vn -0.000686 0.031321 -0.999509
vn 0.000291 0.031322 -0.999509
vn 0.768087 0.030076 -0.639639
vn -0.983367 0.024371 0.179986
vn -0.985757 0.024407 -0.166396
vn -0.985388 0.024414 -0.168565
vn -0.983676 0.024368 0.178290
vn -0.003489 0.032467 0.999467
vn 0.713403 0.031944 0.700026
vn 0.986332 0.025598 0.162771
vn 0.987299 0.025731 -0.156778
vn -0.003489 0.032467 -0.999467
vn 0.729456 0.032139 -0.683272
vn -0.987299 0.025731 -0.156778
vn -0.986332 0.025598 0.162771
vn -0.717406 0.016134 0.696468
vn -0.689045 0.032078 0.724009
vn -0.718860 0.030125 0.694502
vn -0.703082 0.030225 0.710467
vn -0.003003 0.338763 0.940867
vn 0.737418 0.111941 0.666096
vn -0.701320 -0.119388 0.702778
vn -0.003183 0.378514 -0.925590
vn 0.762307 0.123119 -0.635398
vn -0.732027 0.030385 -0.680598
vn -0.744268 0.030295 -0.667194
vn -0.729505 0.016155 -0.683785
vn -0.705691 0.032289 -0.707783
vn -0.710629 -0.124185 -0.692520
vn -0.854206 0.363811 -0.371448
vn -0.740343 0.131869 -0.659168
vn -0.844448 0.366457 0.390663
vn -0.714438 0.119757 0.689374
vn -0.983886 0.020805 0.177584
vn -0.716060 0.028869 0.697442
vn -0.985597 0.020960 -0.167805
vn -0.748595 0.028922 -0.662396
vn -0.000330 0.031562 -0.999502
vn 0.771109 0.028668 -0.636058
vn 0.985597 0.020960 -0.167805
vn 0.983886 0.020805 0.177584
vn 0.740133 0.028649 0.671850
vn -0.000330 0.031562 0.999502
vn 0.000589 0.032679 0.999466
vn -0.715009 0.032010 0.698382
vn 0.740478 0.031821 0.671327
vn 0.984282 0.025935 0.174691
vn 0.985944 0.026043 -0.165035
vn 0.757378 0.032007 -0.652192
vn 0.000588 0.032679 -0.999466
vn -0.732650 0.032214 -0.679842
vn -0.985944 0.026043 -0.165035
vn -0.984282 0.025935 0.174692
vn -0.239541 0.826866 -0.508834
vn -0.239541 0.826866 -0.508834
vn -0.239541 0.826866 -0.508834
vn -0.239541 0.826866 -0.508834
vn -0.141327 -0.836130 -0.530012
vn -0.141327 -0.836130 -0.530012
vn -0.141327 -0.836130 -0.530012
vn -0.141327 -0.836130 -0.530012
vn -0.654321 0.755780 -0.025704
vn -0.654321 0.755780 -0.025704
vn -0.654321 0.755780 -0.025704
vn -0.654321 0.755780 -0.025704
vn -0.622741 -0.782146 0.021011
vn -0.622741 -0.782146 0.021011
vn -0.622741 -0.782146 0.021011
vn -0.622741 -0.782146 0.021011
vn -0.141326 -0.836126 0.530020
vn -0.141326 -0.836126 0.530020
vn -0.141326 -0.836126 0.530020
vn -0.141326 -0.836126 0.530020
vn -0.239540 0.826861 0.508844
vn -0.239540 0.826861 0.508844
vn -0.239540 0.826861 0.508844
vn -0.239540 0.826861 0.508844
vn 0.654321 0.755781 -0.025704
vn 0.654321 0.755780 -0.025704
vn 0.654321 0.755780 -0.025704
vn 0.654320 0.755780 -0.025704
vn 0.622741 -0.782146 0.021011
vn 0.622741 -0.782146 0.021011
vn 0.622741 -0.782146 0.021011
vn 0.622741 -0.782146 0.021011
vn 0.624792 0.763832 -0.161850
vn 0.624792 0.763832 -0.161849
vn 0.624792 0.763832 -0.161850
vn 0.624792 0.763832 -0.161850
vn 0.584799 -0.795223 -0.160098
vn 0.584799 -0.795223 -0.160098
vn 0.584799 -0.795223 -0.160098
vn 0.584799 -0.795223 -0.160098
vn -0.584799 -0.795224 -0.160093
vn -0.584799 -0.795224 -0.160093
vn -0.584799 -0.795224 -0.160093
vn -0.584799 -0.795224 -0.160093
vn -0.624792 0.763832 -0.161854
vn -0.624792 0.763832 -0.161854
vn -0.624792 0.763832 -0.161854
vn -0.624792 0.763832 -0.161854
vn -0.627346 0.762397 0.158706
vn -0.627346 0.762397 0.158706
vn -0.627346 0.762397 0.158706
vn -0.627346 0.762397 0.158706
vn -0.603762 -0.785144 0.137912
vn -0.603762 -0.785144 0.137912
vn -0.603762 -0.785144 0.137912
vn -0.603762 -0.785144 0.137912
vn 0.603762 -0.785146 0.137903
vn 0.603762 -0.785146 0.137903
vn 0.603762 -0.785146 0.137903
vn 0.603762 -0.785146 0.137903
vn 0.627346 0.762397 0.158709
vn 0.627346 0.762397 0.158709
vn 0.627346 0.762397 0.158709
vn 0.627346 0.762397 0.158709
vn 0.222194 0.824629 0.520209
vn 0.222194 0.824629 0.520209
vn 0.222194 0.824629 0.520209
vn 0.222194 0.824629 0.520209
vn 0.131096 -0.833892 0.536132
vn 0.131096 -0.833892 0.536132
vn 0.131096 -0.833892 0.536132
vn 0.131096 -0.833892 0.536132
vn 0.131097 -0.833898 -0.536124
vn 0.131097 -0.833897 -0.536124
vn 0.131097 -0.833897 -0.536124
vn 0.131097 -0.833898 -0.536124
vn 0.222194 0.824631 -0.520206
vn 0.222194 0.824631 -0.520206
vn 0.222194 0.824631 -0.520206
vn 0.222194 0.824631 -0.520206
vn 0.000000 0.027362 0.999626
vn 0.000000 0.027362 0.999626
vn 0.000000 0.083705 0.996491
vn 0.000000 0.083705 0.996491
vn 0.000000 0.993750 -0.111629
vn 0.000000 0.993750 -0.111629
vn 0.000000 0.993784 0.111321
vn 0.000000 0.993784 0.111321
vn 0.000000 0.083705 -0.996491
vn 0.000000 0.083705 -0.996491
vn 0.000000 0.027362 -0.999626
vn 0.000000 0.027362 -0.999626
vn 0.000000 -0.992346 0.123485
vn 0.000000 -0.992346 0.123485
vn 0.000000 -0.992280 -0.124018
vn 0.000000 -0.992280 -0.124018
vn 0.959655 0.280967 -0.010985
vn 0.959397 0.281775 0.012675
vn 0.884571 0.466104 0.016784
vn 0.885318 0.464736 -0.015223
vn -0.959397 0.281775 0.012675
vn -0.959655 0.280967 -0.010985
vn -0.885318 0.464736 -0.015223
vn -0.884571 0.466104 0.016784
vn 0.000000 -0.985334 -0.170638
vn 0.000000 -0.985334 -0.170638
vn 0.000000 -0.972284 0.233802
vn 0.000000 -0.972284 0.233802
vn 0.886605 0.204115 0.415054
vn 0.966230 0.242176 0.088033
vn 0.901417 0.425422 0.080403
vn 0.849738 0.367822 0.377694
vn 0.000000 0.989348 -0.145574
vn 0.000000 0.989348 -0.145574
vn 0.000000 0.978337 0.207018
vn 0.000000 0.978337 0.207018
vn -0.901417 0.425422 0.080403
vn -0.966230 0.242176 0.088033
vn -0.886605 0.204115 0.415054
vn -0.849738 0.367822 0.377695
vn 0.000000 0.989457 0.144824
vn 0.000000 0.989457 0.144824
vn 0.000000 0.982939 -0.183931
vn 0.000000 0.982939 -0.183931
vn 0.901370 0.425365 -0.081222
vn 0.966115 0.242512 -0.088372
vn 0.894488 0.206121 -0.396743
vn 0.856381 0.370462 -0.359679
vn 0.000000 -0.985461 0.169901
vn 0.000000 -0.985461 0.169901
vn 0.000000 -0.978160 -0.207853
vn 0.000000 -0.978160 -0.207853
vn -0.894488 0.206120 -0.396743
vn -0.966115 0.242512 -0.088371
vn -0.901370 0.425365 -0.081222
vn -0.856381 0.370462 -0.359678
vn 0.000000 -0.780538 0.625109
vn 0.000000 -0.780538 0.625109
vn 0.840540 0.244387 0.483495
vn 0.817328 0.360067 0.449807
vn 0.000000 0.882819 0.469714
vn 0.000000 0.882819 0.469714
vn -0.840540 0.244387 0.483494
vn -0.817328 0.360067 0.449807
vn 0.000000 0.882819 -0.469714
vn 0.000000 0.882819 -0.469714
vn 0.840540 0.244388 -0.483495
vn 0.817328 0.360067 -0.449807
vn 0.000000 -0.780536 -0.625111
vn 0.000000 -0.780536 -0.625111
vn -0.840540 0.244387 -0.483495
vn -0.817328 0.360067 -0.449807
vn -0.957420 -0.287767 -0.023184
vn -0.955829 -0.288419 0.056622
vn -0.861572 -0.254587 0.439180
vn -0.799568 -0.201782 0.565664
vn 0.000000 -0.048666 0.998815
vn 0.000000 -0.048666 0.998815
vn 0.799567 -0.201782 0.565664
vn 0.861572 -0.254587 0.439180
vn 0.955829 -0.288419 0.056622
vn 0.957420 -0.287767 -0.023184
vn 0.957231 -0.288273 0.024652
vn 0.955894 -0.288175 -0.056765
vn 0.870763 -0.256734 -0.419357
vn 0.799567 -0.201782 -0.565665
vn 0.000000 -0.048666 -0.998815
vn 0.000000 -0.048666 -0.998815
vn -0.799567 -0.201782 -0.565664
vn -0.870763 -0.256734 -0.419357
vn -0.955894 -0.288175 -0.056765
vn -0.957231 -0.288273 0.024652
vn -0.921298 -0.387020 -0.037766
vn -0.925677 -0.375335 0.047381
vn -0.849855 -0.333559 0.408026
vn -0.756809 -0.295613 0.582969
vn 0.000000 -0.058103 0.998311
vn 0.000000 -0.058103 0.998311
vn 0.849855 -0.333559 0.408026
vn 0.756809 -0.295613 0.582969
vn 0.925677 -0.375335 0.047381
vn 0.921298 -0.387020 -0.037766
vn 0.921029 -0.387525 0.039121
vn 0.925648 -0.375300 -0.048236
vn 0.858683 -0.336529 -0.386539
vn 0.756809 -0.295613 -0.582969
vn 0.000000 -0.058103 -0.998311
vn 0.000000 -0.058103 -0.998311
vn -0.858683 -0.336529 -0.386539
vn -0.756810 -0.295613 -0.582968
vn -0.925648 -0.375300 -0.048236
vn -0.921029 -0.387525 0.039121
s 1
g matilo_pCube2
usemtl initialShadingGroup
f 44/59/1 33/47/2 2/2/3 4/4/4
s 2
f 40/55/5 41/56/6 20/27/7 29/42/8
s 1
f 36/51/9 37/52/10 6/6/11 8/8/12
f 34/49/13 35/50/14 26/37/15 23/31/16
f 22/30/17 23/32/16 26/38/15 27/40/18
f 32/45/19 25/35/20 24/33/21 17/23/22
s 6
f 65/80/23 66/81/24 67/82/25 68/83/26
f 69/84/27 70/85/28 71/86/29 72/87/30
f 73/88/31 74/89/32 75/90/33 76/91/34
f 77/92/35 78/93/36 79/94/37 80/95/38
s 1
f 43/58/39 44/59/1 4/4/4 14/20/40
f 21/28/41 22/29/17 27/39/18 28/41/42
f 6/6/11 37/52/10 38/53/43 15/21/44
f 31/44/45 32/46/19 17/24/22 18/25/46
f 18/25/46 17/24/22 3/3/47 13/19/48
s 6
f 81/96/49 77/92/35 80/95/38 82/97/50
s 2
f 41/56/6 42/57/51 10/16/52 20/27/7
s 6
f 68/83/26 71/86/29 70/85/28 65/80/23
s 1
f 4/4/4 22/29/17 21/28/41 14/20/40
f 2/2/3 23/32/16 22/30/17 4/4/4
f 33/48/2 34/49/13 23/31/16 2/10/3
f 17/23/22 24/33/21 1/1/53 3/3/47
f 35/50/14 36/51/9 8/8/12 26/37/15
f 27/40/18 26/38/15 8/11/12 6/12/11
f 28/41/42 27/39/18 6/6/11 15/21/44
s 6
f 76/91/34 69/84/27 72/87/30 73/88/31
s 2
f 39/54/54 40/55/5 29/42/8 11/17/55
s 6
f 83/98/56 79/94/37 78/93/36 84/99/57
s 1
f 5/5/58 32/46/19 31/44/45 16/22/59
f 7/13/60 25/35/20 32/45/19 5/14/58
f 24/34/21 34/49/13 33/48/2 1/9/53
f 25/36/20 35/50/14 34/49/13 24/34/21
f 7/7/60 36/51/9 35/50/14 25/36/20
f 5/5/58 37/52/10 36/51/9 7/7/60
f 38/53/43 37/52/10 5/5/58 16/22/59
s 6
f 84/99/57 75/90/33 74/89/32 83/98/56
s 2
f 30/43/61 40/55/5 39/54/54 12/18/62
f 19/26/63 41/56/6 40/55/5 30/43/61
f 9/15/64 42/57/51 41/56/6 19/26/63
s 6
f 82/97/50 67/82/25 66/81/24 81/96/49
s 1
f 3/3/47 44/59/1 43/58/39 13/19/48
f 1/1/53 33/47/2 44/59/1 3/3/47
s 2
f 19/26/63 46/61/65 45/60/66 9/15/64
f 30/43/61 47/62/67 46/61/65 19/26/63
f 48/63/68 47/62/67 30/43/61 12/18/62
f 39/54/54 49/64/69 48/63/68 12/18/62
f 50/65/70 49/64/69 39/54/54 11/17/55
f 29/42/8 51/66/71 50/65/70 11/17/55
f 20/27/7 52/67/72 51/66/71 29/42/8
f 53/68/73 52/67/72 20/27/7 10/16/52
f 42/57/51 54/69/74 53/68/73 10/16/52
f 45/60/66 54/69/74 42/57/51 9/15/64
s 1
f 13/19/48 43/58/39 56/71/75 55/70/76
f 57/72/77 56/71/75 43/58/39 14/20/40
f 14/20/40 21/28/41 58/73/78 57/72/77
f 59/74/79 58/73/78 21/28/41 28/41/42
f 60/75/80 59/74/79 28/41/42 15/21/44
f 15/21/44 38/53/43 61/76/81 60/75/80
f 62/77/82 61/76/81 38/53/43 16/22/59
f 16/22/59 31/44/45 63/78/83 62/77/82
f 64/79/84 63/78/83 31/44/45 18/25/46
f 55/70/76 64/79/84 18/25/46 13/19/48
s off
f 53/68/85 54/69/86 66/81/87 65/80/88
f 56/71/89 57/72/90 68/83/91 67/82/92
f 51/66/93 52/67/94 70/85/95 69/84/96
f 58/73/97 59/74/98 72/87/99 71/86/100
f 60/75/101 61/76/102 74/89/103 73/88/104
f 49/64/105 50/65/106 76/91/107 75/90/108
f 46/61/109 47/62/110 78/93/111 77/92/112
f 63/78/113 64/79/114 80/95/115 79/94/116
f 45/60/117 46/61/118 77/92/119 81/96/120
f 64/79/121 55/70/122 82/97/123 80/95/124
f 57/72/125 58/73/126 71/86/127 68/83/128
f 52/67/129 53/68/130 65/80/131 70/85/132
f 50/65/133 51/66/134 69/84/135 76/91/136
f 59/74/137 60/75/138 73/88/139 72/87/140
f 62/77/141 63/78/142 79/94/143 83/98/144
f 47/62/145 48/63/146 84/99/147 78/93/148
f 48/63/149 49/64/150 75/90/151 84/99/152
f 61/76/153 62/77/154 83/98/155 74/89/156
f 55/70/157 56/71/158 67/82/159 82/97/160
f 54/69/161 45/60/162 81/96/163 66/81/164
s 9
f 120/100/165 121/101/166 103/102/167 104/103/168
s 10
f 87/104/169 88/105/170 90/106/171 89/107/172
s 11
f 105/108/173 106/109/174 128/110/175 129/111/176
s 12
f 91/112/177 92/113/178 86/114/179 85/115/180
s 13
f 124/116/181 125/117/182 90/118/183 88/105/184
s 14
f 132/119/185 117/120/186 87/104/187 89/121/188
s 12
f 109/122/189 110/123/190 94/124/191 93/125/192
s 13
f 122/126/193 123/127/194 111/128/195 95/129/196
s 10
f 111/128/197 112/130/198 96/131/199 95/129/200
s 14
f 112/130/201 118/132/202 119/133/203 96/131/204
s 10
f 113/134/205 114/135/206 98/136/207 97/137/208
s 13
f 114/135/209 126/138/210 127/139/211 98/136/212
s 12
f 115/140/213 116/141/214 100/142/215 99/143/216
s 14
f 130/144/217 131/145/218 113/134/219 97/137/220
s 12
f 93/125/192 94/124/191 102/146/221 101/147/222
s 13
f 121/101/223 122/126/193 95/129/196 103/102/224
s 10
f 95/129/200 96/131/199 104/103/225 103/102/226
s 14
f 96/131/204 119/133/203 120/100/227 104/103/228
s 10
f 97/137/208 98/136/207 106/109/229 105/108/230
s 13
f 98/136/212 127/139/211 128/110/231 106/109/232
s 12
f 99/143/216 100/142/215 108/148/233 107/149/234
s 14
f 129/111/235 130/144/217 97/137/220 105/108/236
s 12
f 85/150/180 86/151/179 110/123/190 109/122/189
s 13
f 123/127/194 124/116/181 88/105/184 111/128/195
s 10
f 88/105/170 87/104/169 112/130/198 111/128/197
s 14
f 87/104/187 117/120/186 118/132/202 112/130/201
s 10
f 89/107/172 90/106/171 114/135/206 113/134/205
s 13
f 90/106/183 125/152/182 126/138/210 114/135/209
s 12
f 92/113/178 91/112/177 116/141/214 115/140/213
s 14
f 131/145/218 132/153/185 89/107/188 113/134/219
f 118/132/202 117/120/186 133/154/237 134/155/238
f 119/133/203 118/132/202 134/155/238 135/156/239
f 120/100/227 119/133/203 135/156/239 136/157/240
s 9
f 136/157/241 137/158/242 121/101/166 120/100/165
s 13
f 137/158/243 138/159/244 122/126/193 121/101/223
f 138/159/244 139/160/245 123/127/194 122/126/193
f 139/160/245 140/161/246 124/116/181 123/127/194
f 140/161/246 141/162/247 125/117/182 124/116/181
f 126/138/210 125/152/182 141/163/247 142/164/248
f 127/139/211 126/138/210 142/164/248 143/165/249
f 128/110/231 127/139/211 143/165/249 144/166/250
s 11
f 129/111/176 128/110/175 144/166/251 145/167/252
s 14
f 145/167/253 146/168/254 130/144/217 129/111/235
f 146/168/254 147/169/255 131/145/218 130/144/217
f 147/169/255 148/170/256 132/153/185 131/145/218
f 148/171/256 133/154/237 117/120/186 132/119/185
f 134/155/238 133/154/237 85/150/257 109/122/258
f 135/156/239 134/155/238 109/122/258 93/125/259
f 136/157/240 135/156/239 93/125/259 101/147/260
s 9
f 101/147/261 102/146/262 137/158/242 136/157/241
s 13
f 94/124/263 138/159/244 137/158/243 102/146/264
f 110/123/265 139/160/245 138/159/244 94/124/263
f 86/151/266 140/161/246 139/160/245 110/123/265
f 86/151/266 92/172/267 141/162/247 140/161/246
f 142/164/248 141/163/247 92/113/267 115/140/268
f 143/165/249 142/164/248 115/140/268 99/143/269
f 144/166/250 143/165/249 99/143/269 107/149/270
s 11
f 145/167/252 144/166/251 107/149/271 108/148/272
s 14
f 100/142/273 146/168/254 145/167/253 108/148/274
f 116/141/275 147/169/255 146/168/254 100/142/273
f 91/112/276 148/170/256 147/169/255 116/141/275
f 91/173/276 85/150/257 133/154/237 148/171/256
