# This file uses centimeters as units for non-parametric coordinates.

mtllib Corner.mtl
g default
v -0.544523 -0.147860 -1.046539
v -0.088426 -0.147860 -1.092599
v -0.585449 0.378465 -1.090085
v -0.547252 0.412252 -1.549365
v -0.087531 0.379715 -1.592306
v -0.504221 -0.147860 -1.503585
v -0.045862 -0.147860 -1.547966
v 0.995514 -0.147860 -1.503988
v 0.990491 -0.147860 -1.079714
v 0.993556 0.207882 -1.505728
v -0.504440 -0.147860 -0.003947
v -0.082250 -0.147860 -0.007234
v -0.506380 0.207882 -0.005671
v 1.771896 -0.147860 -1.499999
v -0.499999 -0.147860 0.756359
v 1.250829 -0.147860 -1.207590
v -0.207746 -0.147860 0.248077
v -0.088427 0.233934 -1.092599
v -0.358465 0.367186 -1.361065
v 0.871658 0.240685 -1.246506
v 0.990491 0.119790 -1.079714
v -0.084941 0.118771 -0.009626
v -0.249352 0.240027 -0.126912
v 1.185056 0.188569 -1.337253
v 1.249673 0.068947 -1.208617
v -0.208908 0.069126 0.247044
v -0.338309 0.188470 0.182932
v 1.771896 -0.010401 -1.499999
v 1.535173 0.151827 -1.499999
v -0.499999 0.151757 0.525052
v -0.499999 -0.010213 0.756359
v -0.166451 0.247244 -0.593211
v -0.259210 0.279346 -1.256526
v -0.258467 0.297293 -0.609356
v -0.165012 0.193679 -0.118290
v -0.089734 0.176353 -0.553471
v 0.406025 0.247739 -1.167543
v 0.446313 0.176862 -1.090115
v 0.880351 0.194411 -1.161702
v 0.390101 0.297795 -1.260542
v 1.099811 0.161346 -1.209995
v 1.119633 0.094369 -1.144564
v 1.238992 0.135685 -1.279936
v 1.077852 0.209876 -1.278162
v -0.212281 0.160896 0.099434
v -0.280398 0.209443 0.077792
v -0.280831 0.135636 0.235925
v -0.146695 0.093949 0.118913
v 1.433666 0.104564 -1.381041
v 1.512430 0.029273 -1.352846
v 1.653535 0.070713 -1.499999
v 1.344425 0.163367 -1.410279
v -0.381188 0.104638 0.426042
v -0.410607 0.163363 0.338593
v -0.499999 0.070772 0.640705
v -0.352790 0.029457 0.503180
v -0.535137 0.413296 -1.364036
v -0.422498 0.371471 -1.061338
v -0.451337 0.422107 -1.448294
v -0.607322 0.388217 -1.373367
v 0.413114 0.306208 -1.392835
v -0.056004 0.372025 -1.430864
v 0.870280 0.246092 -1.360609
v 0.459151 0.293798 -1.541139
v -0.390293 0.305655 -0.585735
v -0.538776 0.293174 -0.538928
v -0.362676 0.245633 -0.128399
v 1.234554 0.189197 -1.441311
v 1.112509 0.206618 -1.405289
v 1.266229 0.179854 -1.501206
v -0.441757 0.189174 0.230795
v -0.406274 0.206532 0.111491
v -0.501395 0.179820 0.261286
v 1.051147 0.221510 -1.352221
v -0.354057 0.221190 0.051396
v -0.369058 0.413712 -1.531312
v -0.377582 0.388842 -1.610883
v 0.446313 -0.147860 -1.090115
v -0.089734 -0.147860 -0.553471
v 0.474826 -0.147860 -1.525977
v -0.524482 -0.147860 -0.525243
v 1.511362 -0.147860 -1.353795
v -0.353873 -0.147860 0.502218
vt 0.375000 0.000000
vt 0.625000 0.500000
vt 0.375000 0.750000
vt 0.625000 0.750000
vt 0.375000 1.000000
vt 0.625000 1.000000
vt 0.875000 0.000000
vt 0.125000 0.000000
vt 0.125000 0.250000
vt 0.875000 0.000000
vt 0.375000 0.000000
vt 0.568603 0.306397
vt 0.685445 0.250000
vt 0.844919 0.222198
vt 0.441832 0.197411
vt 0.375000 0.250000
vt 0.875000 0.250000
vt 0.719465 0.239201
vt 0.625000 0.186383
vt 0.625000 0.000000
vt 0.625000 0.000000
vt 0.581774 0.184614
vt 0.841406 0.240000
vt 0.457755 0.237527
vt 0.405108 0.222236
vt 0.808195 0.197380
vt 0.761816 0.171099
vt 0.875000 0.000000
vt 0.375000 0.000000
vt 0.500000 0.000000
vt 0.792311 0.237514
vt 0.750000 0.000000
vt 0.668495 0.181102
vt 0.488207 0.171158
vt 0.625000 0.000000
vt 0.551001 0.250000
vt 0.408746 0.241562
vt 0.375000 0.500000
vt 0.569397 0.306233
vt 0.592401 0.226098
vt 0.596802 0.246390
vt 0.655222 0.218191
vt 0.559802 0.278198
vt 0.560199 0.278117
vt 0.575711 0.210310
vt 0.625000 0.173998
vt 0.658622 0.212018
vt 0.655222 0.218191
vt 0.625000 0.174037
vt 0.674565 0.206806
vt 0.706684 0.240505
vt 0.715595 0.203513
vt 0.687500 0.157026
vt 0.769003 0.200055
vt 0.747609 0.238378
vt 0.534443 0.203526
vt 0.502452 0.238381
vt 0.481040 0.200108
vt 0.562500 0.157051
vt 0.822084 0.194344
vt 0.812500 0.138687
vt 0.875000 0.187506
vt 0.832882 0.236086
vt 0.427943 0.194418
vt 0.417160 0.236104
vt 0.375000 0.187592
vt 0.437500 0.138836
vt 0.439799 0.352078
vt 0.462949 0.293092
vt 0.476832 0.398431
vt 0.250000 0.250000
vt 0.375000 0.375000
vt 0.783622 0.250000
vt 0.780222 0.250000
vt 0.597199 0.403117
vt 0.786282 0.250000
vt 0.875000 0.250000
vt 0.467600 0.264058
vt 0.375000 0.250000
vt 0.464048 0.253515
vt 0.560199 0.278117
vt 0.846112 0.250000
vt 0.824226 0.250000
vt 0.875000 0.250000
vt 0.403924 0.250000
vt 0.425822 0.250000
vt 0.375000 0.250000
vt 0.787460 0.250000
vt 0.462591 0.250000
vt 0.523132 0.435411
vt 0.597199 0.403117
vt 0.500000 0.500000
vt 0.625000 0.000000
vt 0.625000 0.000000
vt 0.875000 0.000000
vt 0.375000 0.000000
vt 0.812500 0.000000
vt 0.437500 0.000000
vn -0.118318 -0.167744 -0.978705
vn -0.123702 -0.125614 -0.984337
vn 0.028913 -0.084408 -0.996012
vn -0.000000 -1.000000 -0.000000
vn -0.000000 -1.000000 0.000000
vn -0.000000 -1.000000 -0.000000
vn -0.986221 -0.119826 -0.114059
vn -0.996442 -0.079743 0.027265
vn -0.996361 -0.058250 0.062222
vn -0.000000 -1.000000 0.000000
vn -0.000000 -1.000000 0.000000
vn 0.063008 -0.063250 -0.996007
vn 0.059418 -0.042896 -0.997311
vn 0.058623 -0.040188 -0.997471
vn 0.000000 -1.000000 -0.000000
vn 0.000000 -1.000000 -0.000000
vn 0.000000 -1.000000 -0.000000
vn 0.000000 -1.000000 -0.000000
vn -0.997730 -0.040240 0.054005
vn -0.997857 -0.037890 0.053338
vn -0.999015 -0.015928 0.041411
vn -0.998915 -0.017171 0.043295
vn 0.044829 -0.016339 -0.998861
vn 0.046738 -0.017528 -0.998753
vn 0.008465 0.001494 -0.999963
vn 0.000000 -1.000000 -0.000000
vn 0.000000 -1.000000 -0.000000
vn 0.000000 -1.000000 -0.000000
vn -0.999983 0.001961 0.005486
vn -0.999983 0.000000 0.005841
vn -0.000000 -1.000000 0.000000
vn -0.000000 -1.000000 0.000000
vn 0.000000 -1.000000 0.000000
vn 0.000000 -1.000000 0.000000
vn -0.000000 -1.000000 0.000000
vn 0.000000 -1.000000 -0.000000
vn 0.971324 0.237319 0.014462
vn 0.906140 0.422538 0.019260
vn 0.553826 0.832577 -0.009613
vn 0.500023 0.864995 0.041974
vn 0.057639 0.931423 0.359347
vn 0.218836 0.949238 0.225960
vn -0.008100 0.837443 0.546464
vn 0.039790 0.865202 0.499843
vn 0.242337 0.920532 0.306422
vn 0.129011 0.953395 0.272753
vn 0.114444 0.819327 0.561788
vn 0.321832 0.799453 0.507247
vn 0.855312 0.263978 0.445822
vn 0.980764 0.182661 0.068822
vn 0.565207 0.816428 0.118266
vn 0.511129 0.797838 0.319691
vn 0.274875 0.907184 0.318531
vn 0.301599 0.908838 0.288188
vn 0.400190 0.745142 0.533490
vn 0.407463 0.699440 0.587160
vn 0.831299 0.223315 0.508991
vn 0.855023 0.189551 0.482707
vn 0.530849 0.745183 0.403611
vn 0.582815 0.699213 0.414038
vn -0.129084 0.988550 0.078143
vn -0.039943 0.990358 0.132648
vn 0.105034 0.988196 0.111515
vn 0.026952 0.995571 0.090073
vn 0.149831 0.987432 -0.050285
vn 0.130062 0.990742 -0.038911
vn 0.111296 0.988374 0.103585
vn 0.128273 0.990830 0.042461
vn 0.007066 0.233761 0.972269
vn -0.011306 0.000001 0.999936
vn 0.074128 0.000959 0.997248
vn 0.064726 0.180443 0.981453
vn 0.999997 0.000001 0.002425
vn 0.999991 0.002067 -0.003738
vn 0.366386 0.928670 0.057743
vn 0.041893 0.990893 0.127967
vn 0.125046 0.992147 0.002759
vn 0.141652 0.984775 -0.100758
vn 0.147327 0.986927 -0.065345
vn 0.140002 0.990151 0.001124
vn 0.317839 0.905922 0.279792
vn 0.289179 0.907430 0.304870
vn -0.065126 0.986658 0.149213
vn 0.000814 0.989755 0.142772
vn 0.500874 0.114617 0.857898
vn 0.500044 0.223818 0.836577
vn 0.487868 -0.001744 0.872916
vn 0.491099 -0.004294 0.871093
vn 0.867829 -0.001852 0.496860
vn 0.882990 0.004016 0.469374
vn 0.140341 0.989748 -0.026520
vn 0.156035 0.987152 -0.034415
vn 0.465192 0.002772 0.885205
vn 0.479044 0.187941 0.857435
vn 0.450444 0.261558 0.853632
vn 0.996825 0.005518 0.079434
vn 0.308927 0.919717 0.242250
vn 0.273924 0.952828 0.130704
vn -0.025851 0.989824 0.139929
vn -0.032517 0.987125 0.156609
vn 0.075445 0.990084 -0.118498
vn -0.095361 0.990556 -0.098518
vn 0.097619 0.990322 0.098654
vn 0.088724 0.995530 0.032391
vn 0.013368 0.419624 0.907600
vn 0.429499 0.668600 0.607047
vn 0.361605 0.753375 0.549242
vn 0.545349 0.753290 0.367627
vn 0.602913 0.667388 0.437138
vn 0.852255 0.115558 0.510203
vn -0.050262 0.987679 0.148202
vn -0.100263 0.984870 0.141344
vn 0.000970 0.991835 0.127528
vn -0.004646 0.000001 0.999989
vn -0.980623 -0.161753 -0.110518
vn -0.937495 -0.099285 -0.333536
vn 0.004313 0.005541 -0.999975
vn -0.351582 -0.103060 -0.930467
vn 0.004083 0.005956 -0.999974
vn 0.865848 -0.004506 0.500286
vn 0.004829 0.001740 -0.999987
vn 0.005138 -0.000001 -0.999987
vn -0.999952 0.001427 0.009717
vn -0.999969 0.006079 0.004952
vn -0.999967 0.006626 0.004642
s 1
g pCube1
usemtl initialShadingGroup
f 6/3/1 77/92/2 7/4/3
s 2
f 6/3/4 7/4/5 2/6/6
s 3
f 60/71/7 1/1/8 3/16/9
s 2
f 2/21/6 7/7/5 80/95/10 78/93/11
s 1
f 7/7/3 5/17/12 64/77/13 80/95/14
s 2
f 81/96/15 79/94/16 12/35/17 11/11/18
s 3
f 66/79/19 81/96/20 11/11/21 13/37/22
s 1
f 8/10/23 10/23/24 70/84/25
s 2
f 11/11/18 17/30/26 83/98/27 15/29/28
s 3
f 31/15/29 11/11/21 15/29/30
s 2
f 16/32/31 8/10/32 14/28/33 82/97/34
f 9/20/35 8/10/32 16/32/31
f 11/11/18 12/35/17 17/30/26
f 6/3/4 2/6/6 1/5/36
s 7
f 36/46/37 18/19/38 33/41/39 32/40/40
f 40/51/41 19/13/42 33/48/43 37/47/44
f 44/55/45 20/18/46 39/50/47 41/52/48
f 48/59/49 22/22/50 35/45/51 45/56/52
f 52/63/53 24/31/54 43/54/55 49/60/56
f 56/67/57 26/34/58 47/58/59 53/64/60
f 60/72/61 3/16/62 58/69/63 57/68/64
f 64/77/65 5/17/66 62/74/67 61/73/68
f 38/49/69 78/93/70 9/20/71 21/33/72
f 2/21/73 18/19/38 36/46/37 79/94/74
f 34/81/75 19/39/42 58/69/63 65/78/76
f 70/84/77 10/23/78 69/83/79 68/82/80
f 54/65/81 27/24/82 72/86/83 71/85/84
f 28/26/85 50/61/86 82/97/87 14/28/88
f 56/67/57 83/98/89 17/30/90 26/34/58
f 69/83/79 10/23/78 63/76/91 74/88/92
f 16/32/93 25/27/94 42/53/95 9/20/71
f 48/59/49 12/35/96 22/22/50
f 46/57/97 23/36/98 67/80/99 75/89/100
f 77/92/101 4/38/102 59/70/103 76/90/104
f 33/41/39 19/12/42 34/43/75 32/40/40
f 34/43/75 23/36/98 35/45/51 32/40/40
f 35/45/51 22/22/50 36/46/37 32/40/40
f 33/48/43 18/19/105 38/49/69 37/47/44
f 38/49/69 21/33/72 39/50/47 37/47/44
f 39/50/47 20/18/46 40/51/41 37/47/44
f 39/50/47 21/33/72 42/53/95 41/52/48
f 42/53/95 25/27/94 43/54/55 41/52/48
f 43/54/55 24/31/54 44/55/45 41/52/48
f 35/45/51 23/36/98 46/57/97 45/56/52
f 46/57/97 27/24/82 47/58/59 45/56/52
f 47/58/59 26/34/58 48/59/49 45/56/52
f 43/54/55 25/27/94 50/61/86 49/60/56
f 50/61/86 28/26/85 51/62/106 49/60/56
f 51/62/106 29/14/107 52/63/53 49/60/56
f 47/58/59 27/24/82 54/65/81 53/64/60
f 54/65/81 30/25/108 55/66/109 53/64/60
f 55/66/109 31/15/110 56/67/57 53/64/60
f 58/69/63 19/39/42 59/70/103 57/68/64
f 59/70/103 4/38/102 60/72/61 57/68/64
f 62/74/67 19/13/42 40/51/41 61/73/68
f 40/51/41 20/18/46 63/76/91 61/73/68
f 63/76/91 10/23/78 64/77/65 61/73/68
f 58/69/63 3/16/62 66/79/111 65/78/76
f 66/79/111 13/37/112 67/80/99 65/78/76
f 67/80/99 23/36/98 34/81/75 65/78/76
f 69/83/79 24/31/54 52/63/53 68/82/80
f 52/63/53 29/14/107 70/84/77 68/82/80
f 72/86/83 13/37/112 73/87/113 71/85/84
f 73/87/113 30/25/108 54/65/81 71/85/84
f 63/76/91 20/18/46 44/55/45 74/88/92
f 44/55/45 24/31/54 69/83/79 74/88/92
f 67/80/99 13/37/112 72/86/83 75/89/100
f 72/86/83 27/24/82 46/57/97 75/89/100
f 59/70/103 19/39/42 62/91/67 76/90/104
f 62/91/67 5/2/66 77/92/101 76/90/104
f 18/19/105 2/21/114 78/93/70 38/49/69
f 79/94/74 36/46/37 22/22/50 12/35/96
s 3
f 6/8/115 60/71/7 4/9/116
s 1
f 7/4/3 77/92/2 5/2/12
f 8/10/23 70/84/25 29/14/117
f 80/95/14 64/77/13 10/23/24 8/10/23
s 3
f 3/16/9 1/1/8 81/96/20 66/79/19
s 2
f 1/1/36 2/21/6 79/94/16 81/96/15
f 78/93/11 80/95/10 8/10/32 9/20/35
s 3
f 6/8/115 1/1/8 60/71/7
s 1
f 4/38/118 77/92/2 6/3/1
f 8/10/23 29/14/117 51/62/119
s 7
f 82/97/87 50/61/86 25/27/94 16/32/93
f 15/29/120 83/98/89 56/67/57 31/15/110
s 1
f 8/10/23 28/26/121 14/28/122
f 8/10/23 51/62/119 28/26/121
s 3
f 13/37/22 11/11/21 73/87/123
f 73/87/123 11/11/21 30/25/124
f 30/25/124 11/11/21 55/66/125
f 55/66/125 11/11/21 31/15/29
s 7
f 26/34/58 17/30/90 12/35/96 48/59/49
f 9/20/71 42/53/95 21/33/72
