# This file uses centimeters as units for non-parametric coordinates.

mtllib Platform.mtl
g default
v -16.678175 -0.291940 15.240651
v 16.678175 -0.291940 15.240651
v -16.678175 0.291940 15.240651
v 16.678175 0.291940 15.240651
v -16.678175 0.291940 -15.240651
v 16.678175 0.291940 -15.240651
v -16.678175 -0.291940 -15.240651
v 16.678175 -0.291940 -15.240651
v -16.678175 -0.291940 -15.240651
v 16.678175 -0.291940 -15.240651
v 16.678175 -0.291940 15.240651
v -16.678175 -0.291940 15.240651
v -2.501725 0.291940 2.286097
v 2.501725 0.291940 2.286097
v 2.501725 0.291940 -2.286097
v -2.501725 0.291940 -2.286097
v -2.501725 -0.291940 -2.286097
v 2.501725 -0.291940 -2.286097
v 2.501725 -0.291940 2.286097
v -2.501725 -0.291940 2.286097
v -12.819530 0.164909 -14.624110
v 4.996893 0.164909 -14.624110
v -12.819530 5.094634 -14.624110
v 4.996893 5.094634 -14.624110
v -12.819530 5.094634 -15.244466
v 4.996893 5.094634 -15.244466
v -12.819530 0.164909 -15.244466
v 4.996893 0.164909 -15.244466
v 8.621141 0.164909 -14.614148
v 16.627127 0.164909 -14.614148
v 8.621141 5.094634 -14.614148
v 16.627127 5.094634 -14.614148
v 8.621141 5.094634 -15.234504
v 16.627127 5.094634 -15.234504
v 8.621141 0.164909 -15.234504
v 16.627127 0.164909 -15.234504
vt 0.375000 0.000000
vt 0.625000 0.000000
vt 0.375000 0.250000
vt 0.625000 0.250000
vt 0.375000 0.500000
vt 0.625000 0.500000
vt 0.375000 0.750000
vt 0.625000 0.750000
vt 0.375000 1.000000
vt 0.625000 1.000000
vt 0.875000 0.000000
vt 0.875000 0.250000
vt 0.125000 0.000000
vt 0.125000 0.250000
vt 0.375000 0.750000
vt 0.625000 0.750000
vt 0.625000 1.000000
vt 0.375000 1.000000
vt 0.375000 0.250000
vt 0.625000 0.250000
vt 0.625000 0.500000
vt 0.375000 0.500000
vt 0.375000 0.750000
vt 0.625000 0.750000
vt 0.625000 1.000000
vt 0.375000 1.000000
vt 0.375000 0.000000
vt 0.625000 0.000000
vt 0.625000 0.250000
vt 0.375000 0.250000
vt 0.625000 0.500000
vt 0.375000 0.500000
vt 0.625000 0.750000
vt 0.375000 0.750000
vt 0.625000 1.000000
vt 0.375000 1.000000
vt 0.875000 0.000000
vt 0.875000 0.250000
vt 0.125000 0.000000
vt 0.125000 0.250000
vt 0.375000 0.000000
vt 0.625000 0.000000
vt 0.625000 0.250000
vt 0.375000 0.250000
vt 0.625000 0.500000
vt 0.375000 0.500000
vt 0.625000 0.750000
vt 0.375000 0.750000
vt 0.625000 1.000000
vt 0.375000 1.000000
vt 0.875000 0.000000
vt 0.875000 0.250000
vt 0.125000 0.000000
vt 0.125000 0.250000
vn 0.000000 0.000000 1.000000
vn 0.000000 0.000000 1.000000
vn 0.000000 0.000000 1.000000
vn 0.000000 0.000000 1.000000
vn 0.000000 0.000000 -1.000000
vn 0.000000 0.000000 -1.000000
vn 0.000000 0.000000 -1.000000
vn 0.000000 0.000000 -1.000000
vn 1.000000 0.000000 0.000000
vn 1.000000 0.000000 0.000000
vn 1.000000 0.000000 0.000000
vn 1.000000 0.000000 0.000000
vn -1.000000 0.000000 0.000000
vn -1.000000 0.000000 0.000000
vn -1.000000 0.000000 0.000000
vn -1.000000 0.000000 0.000000
vn 0.000000 0.000000 0.000000
vn 0.000000 0.000000 0.000000
vn 0.000000 0.000000 0.000000
vn 0.000000 0.000000 0.000000
vn 0.000000 0.000000 0.000000
vn 0.000000 0.000000 0.000000
vn 0.000000 0.000000 0.000000
vn 0.000000 0.000000 0.000000
vn 0.000000 0.000000 0.000000
vn 0.000000 0.000000 0.000000
vn 0.000000 0.000000 0.000000
vn 0.000000 0.000000 0.000000
vn 0.000000 0.000000 0.000000
vn 0.000000 0.000000 0.000000
vn 0.000000 0.000000 0.000000
vn 0.000000 0.000000 0.000000
vn 0.000000 1.000000 0.000000
vn 0.000000 1.000000 0.000000
vn 0.000000 1.000000 0.000000
vn 0.000000 1.000000 0.000000
vn 0.000000 1.000000 0.000000
vn 0.000000 1.000000 0.000000
vn 0.000000 1.000000 0.000000
vn 0.000000 1.000000 0.000000
vn 0.000000 -1.000000 0.000000
vn 0.000000 -1.000000 0.000000
vn 0.000000 -1.000000 0.000000
vn 0.000000 -1.000000 0.000000
vn 0.000000 -1.000000 0.000000
vn 0.000000 -1.000000 0.000000
vn 0.000000 -1.000000 0.000000
vn 0.000000 -1.000000 0.000000
vn -1.000000 0.000000 0.000000
vn -1.000000 0.000000 0.000000
vn -1.000000 0.000000 0.000000
vn -1.000000 0.000000 0.000000
vn 0.000000 0.000000 1.000000
vn 0.000000 0.000000 1.000000
vn 0.000000 0.000000 1.000000
vn 0.000000 0.000000 1.000000
vn 1.000000 0.000000 0.000000
vn 1.000000 0.000000 0.000000
vn 1.000000 0.000000 0.000000
vn 1.000000 0.000000 0.000000
vn 0.000000 0.000000 -1.000000
vn 0.000000 0.000000 -1.000000
vn 0.000000 0.000000 -1.000000
vn 0.000000 0.000000 -1.000000
vn 0.000000 0.000000 1.000000
vn 0.000000 0.000000 1.000000
vn 0.000000 0.000000 1.000000
vn 0.000000 0.000000 1.000000
vn 0.000000 1.000000 0.000000
vn 0.000000 1.000000 0.000000
vn 0.000000 1.000000 0.000000
vn 0.000000 1.000000 0.000000
vn 0.000000 0.000000 -1.000000
vn 0.000000 0.000000 -1.000000
vn 0.000000 0.000000 -1.000000
vn 0.000000 0.000000 -1.000000
vn 0.000000 -1.000000 0.000000
vn 0.000000 -1.000000 0.000000
vn 0.000000 -1.000000 0.000000
vn 0.000000 -1.000000 0.000000
vn 1.000000 0.000000 0.000000
vn 1.000000 0.000000 0.000000
vn 1.000000 0.000000 0.000000
vn 1.000000 0.000000 0.000000
vn -1.000000 0.000000 0.000000
vn -1.000000 0.000000 0.000000
vn -1.000000 0.000000 0.000000
vn -1.000000 0.000000 0.000000
vn 0.000000 0.000000 1.000000
vn 0.000000 0.000000 1.000000
vn 0.000000 0.000000 1.000000
vn 0.000000 0.000000 1.000000
vn 0.000000 1.000000 0.000000
vn 0.000000 1.000000 0.000000
vn 0.000000 1.000000 0.000000
vn 0.000000 1.000000 0.000000
vn 0.000000 0.000000 -1.000000
vn 0.000000 0.000000 -1.000000
vn 0.000000 0.000000 -1.000000
vn 0.000000 0.000000 -1.000000
vn 0.000000 -1.000000 0.000000
vn 0.000000 -1.000000 0.000000
vn 0.000000 -1.000000 0.000000
vn 0.000000 -1.000000 0.000000
vn 1.000000 0.000000 0.000000
vn 1.000000 0.000000 0.000000
vn 1.000000 0.000000 0.000000
vn 1.000000 0.000000 0.000000
vn -1.000000 0.000000 0.000000
vn -1.000000 0.000000 0.000000
vn -1.000000 0.000000 0.000000
vn -1.000000 0.000000 0.000000
s off
g pCube5
usemtl lambert2SG
f 1/1/1 2/2/2 4/4/3 3/3/4
f 5/5/5 6/6/6 8/8/7 7/7/8
f 2/2/9 8/11/10 6/12/11 4/4/12
f 7/13/13 1/1/14 3/3/15 5/14/16
f 7/7/17 8/8/18 10/16/19 9/15/20
f 8/8/21 2/10/22 11/17/23 10/16/24
f 2/10/25 1/9/26 12/18/27 11/17/28
f 1/9/29 7/7/30 9/15/31 12/18/32
s 1
f 3/3/33 4/4/34 14/20/35 13/19/36
f 4/4/34 6/6/37 15/21/38 14/20/35
f 6/6/37 5/5/39 16/22/40 15/21/38
f 5/5/39 3/3/33 13/19/36 16/22/40
s 2
f 9/15/41 10/16/42 18/24/43 17/23/44
f 10/16/42 11/17/45 19/25/46 18/24/43
f 11/17/45 12/18/47 20/26/48 19/25/46
f 12/18/47 9/15/41 17/23/44 20/26/48
s off
f 14/20/49 15/21/50 18/24/51 19/25/52
f 15/21/53 16/22/54 17/23/55 18/24/56
f 16/22/57 13/19/58 20/26/59 17/23/60
f 13/19/61 14/20/62 19/25/63 20/26/64
f 21/27/65 22/28/66 24/29/67 23/30/68
f 23/30/69 24/29/70 26/31/71 25/32/72
f 25/32/73 26/31/74 28/33/75 27/34/76
f 27/34/77 28/33/78 22/35/79 21/36/80
f 22/28/81 28/37/82 26/38/83 24/29/84
f 27/39/85 21/27/86 23/30/87 25/40/88
f 29/41/89 30/42/90 32/43/91 31/44/92
f 31/44/93 32/43/94 34/45/95 33/46/96
f 33/46/97 34/45/98 36/47/99 35/48/100
f 35/48/101 36/47/102 30/49/103 29/50/104
f 30/42/105 36/51/106 34/52/107 32/43/108
f 35/53/109 29/41/110 31/44/111 33/54/112
