# Aspose.3D Wavefront OBJ Exporter
# Copyright 2004-2022 Aspose Pty Ltd.
# File created: 02/09/2022 19:39:01


#
# object Plane
#

v -817.46484375 0.00013318192790420097 817.46484374998919976
v 817.46484375 0.00013318192790420097 817.46484374998919976
v -817.46484375 -0.00013318192790420097 -817.46484374998919976
v 817.46484375 -0.00013318192790420097 -817.46484374998919976
# 4 vertices

vn 0 0.99999999999998656 -1.6292067939183141E-07
vn 0 0.99999999999998656 -1.6292067939183141E-07
vn 0 0.99999999999998656 -1.6292067939183141E-07
vn 0 0.99999999999998656 -1.6292067939183141E-07
# 4 vertex normals

vt 0 1 0
vt 1 0 0
vt 0 0 0
vt 1 1 0
# 4 texture coords

g Plane
s 1
f 1/3/1 2/2/2 4/4/3 3/1/4
#1 polygons

