# Aspose.3D Wavefront OBJ Exporter
# Copyright 2004-2022 Aspose Pty Ltd.
# File created: 02/09/2022 19:38:25


#
# object Cylinder
#

v 0 -28.45628078791719416 -99.9999953638847216
v 0 28.45624820378127136 -100.00000463611263512
v 19.50903236865997312 -28.4562804748691924 -98.0785204302604825
v 19.50903236865997312 28.45624851682927312 -98.07852970248839597
v 38.26834559440612792 -28.45627954775690328 -92.38794578426445984
v 38.26834559440612792 28.45624944394156232 -92.38795505649237328
v 55.55702447891235352 -28.45627804220838896 -83.14695490711309844
v 55.55702447891235352 28.45625094949007664 -83.14696417934101192
v 70.710676908493042 -28.45627601608077128 -70.71067227237814736
v 70.710676908493042 28.45625297561769432 -70.7106815446060608
v 83.14695954322814942 -28.45627354723741928 -55.557019842797672
v 83.14695954322814942 28.45625544446104624 -55.55702911502557128
v 92.38795042037963864 -28.45627073055361936 -38.26833797805943504
v 92.38795042037963864 28.45625826114484624 -38.26834725028733432
v 98.07852506637573242 -28.45626767427453176 -19.50903071277800296
v 98.07852506637573242 28.45626131742393384 -19.50903998500590216
v 100 -28.45626449584852224 9.007252779609765E-06
v 100 28.45626449584994336 -2.649751222622941E-07
v 98.07852506637573242 -28.45626131742442056 19.50903700477366344
v 98.07852506637573242 28.45626767427404504 19.50902773254576416
v 92.38795638084411624 -28.45625826114533296 38.26834427005509552
v 92.38795638084411624 28.45627073055313264 38.26833499782719628
v 83.14696550369262696 -28.45625544446201968 55.55702315456109376
v 83.14696550369262696 28.45627354723644584 55.55701388233319448
v 70.710676908493042 -28.45625297561769432 70.7106815446060608
v 70.710676908493042 28.45627601608077128 70.71067227237814736
v 55.557018518447876 -28.45625094948910672 83.14697013980548946
v 55.557018518447876 28.45627804220935888 83.14696086757757598
v 38.26834857463836668 -28.45624944394156232 92.38795505649237328
v 38.26834857463836668 28.45627954775690328 92.38794578426445984
v 19.50903087854385376 -28.45624851682830328 98.07853566295287351
v 19.50903087854385376 28.45628047487016232 98.07852639072496004
v -8.742277657347586E-06 -28.45624820378127136 100.00000463611263512
v -8.742277657347586E-06 28.45628078791719416 99.9999953638847216
v -19.50902491807937624 -28.45624851682830328 98.07853566295287351
v -19.50902491807937624 28.45628047487016232 98.07852639072496004
v -38.26834261417388916 -28.45624944394156232 92.38795505649237328
v -38.26834261417388916 28.45627954775690328 92.38794578426445984
v -55.55703043937683104 -28.45625094949104648 83.14695821887653438
v -55.55703043937683104 28.45627804220741904 83.1469489466486209
v -70.71067094802856448 -28.4562529756167244 70.71068750507053832
v -70.71067094802856448 28.4562760160817412 70.71067823284262488
v -83.14694762229919434 -28.45625544445813304 55.55704699641900392
v -83.14694762229919434 28.45627354724033256 55.55703772419110464
v -92.38795042037963864 -28.45625826114241976 38.26836215144852816
v -92.38795042037963864 28.45627073055604584 38.26835287922062888
v -98.07852506637573242 -28.45626131742345064 19.50904296523814096
v -98.07852506637573242 28.45626767427501488 19.50903369301024168
v -100 -28.45626449584942816 3.4436258870857396E-06
v -100 28.45626449584903736 -5.82860201478632E-06
v -98.07852506637573242 -28.4562676742755016 -19.50903667324248048
v -98.07852506637573242 28.45626131742296392 -19.50904594547037976
v -92.38794445991516112 -28.45627073055653256 -38.26835585945286768
v -92.38794445991516112 28.45625826114193304 -38.26836513168076692
v -83.1469714641571045 -28.45627354723450608 -55.55700196140423944
v -83.1469714641571045 28.45625544446395952 -55.55701123363213864
v -70.71068882942199704 -28.45627601607979784 -70.71066631191366984
v -70.71068882942199704 28.45625297561866776 -70.71067558414158328
v -55.55703043937683104 -28.45627804220838896 -83.14695490711309844
v -55.55703043937683104 28.45625094949007664 -83.14696417934101192
v -38.26834261417388916 -28.4562795477578732 -92.38795174472893736
v -38.26834261417388916 28.4562494439405924 -92.3879610169568508
v -19.5090234279632568 -28.45628047487016232 -98.07852639072496004
v -19.5090234279632568 28.45624851682830328 -98.07853566295287351
# 64 vertices

vn 0.09801729023456574 -1.6213617082261322E-07 -0.99518471956251728
vn 0.09801729023456574 -1.6213617082261322E-07 -0.99518471956251728
vn 0.09801729023456574 -1.6213617082261322E-07 -0.99518471956251728
vn 0.09801729023456574 -1.6213617082261322E-07 -0.99518471956251728
vn 0.2902846336364746 -1.5590537272291982E-07 -0.9569403529167048
vn 0.2902846336364746 -1.5590537272291982E-07 -0.9569403529167048
vn 0.2902846336364746 -1.5590537272291982E-07 -0.9569403529167048
vn 0.2902846336364746 -1.5590537272291982E-07 -0.9569403529167048
vn 0.4713967144489288 -1.4368321621383018E-07 -0.88192129135130672
vn 0.4713967144489288 -1.4368321621383018E-07 -0.88192129135130672
vn 0.4713967144489288 -1.4368321621383018E-07 -0.88192129135130672
vn 0.4713967144489288 -1.4368321621383018E-07 -0.88192129135130672
vn 0.63439333438873288 -1.2593937537275224E-07 -0.77301037311552928
vn 0.63439333438873288 -1.2593937537275224E-07 -0.77301037311552928
vn 0.63439333438873288 -1.2593937537275224E-07 -0.77301037311552928
vn 0.63439333438873288 -1.2593937537275224E-07 -0.77301037311552928
vn 0.77301037311553952 -1.0335579325726485E-07 -0.63439333438872448
vn 0.77301037311553952 -1.0335579325726485E-07 -0.63439333438872448
vn 0.77301037311553952 -1.0335579325726485E-07 -0.63439333438872448
vn 0.77301037311553952 -1.0335579325726485E-07 -0.63439333438872448
vn 0.8819213509559632 -7.6800268256072E-08 -0.47139668464660024
vn 0.8819213509559632 -7.6800268256072E-08 -0.47139668464660024
vn 0.8819213509559632 -7.6800268256072E-08 -0.47139668464660024
vn 0.8819213509559632 -7.6800268256072E-08 -0.47139668464660024
vn 0.9569402933120728 -4.7293384375368674E-08 -0.29028472304343796
vn 0.9569402933120728 -4.7293384375368674E-08 -0.29028472304343796
vn 0.9569402933120728 -4.7293384375368674E-08 -0.29028472304343796
vn 0.9569402933120728 -4.7293384375368674E-08 -0.29028472304343796
vn 0.99518471956253056 -1.596903746736711E-08 -0.09801725298166144
vn 0.99518471956253056 -1.596903746736711E-08 -0.09801725298166144
vn 0.99518471956253056 -1.596903746736711E-08 -0.09801725298166144
vn 0.99518471956253056 -1.596903746736711E-08 -0.09801725298166144
vn 0.99518471956253056 1.5969047181818574E-08 0.09801731258630622
vn 0.99518471956253056 1.5969047181818574E-08 0.09801731258630622
vn 0.99518471956253056 1.5969047181818574E-08 0.09801731258630622
vn 0.99518471956253056 1.5969047181818574E-08 0.09801731258630622
vn 0.95694041252136224 4.7293340632581504E-08 0.2902844548225364
vn 0.95694041252136224 4.7293340632581504E-08 0.2902844548225364
vn 0.95694041252136224 4.7293340632581504E-08 0.2902844548225364
vn 0.95694041252136224 4.7293340632581504E-08 0.2902844548225364
vn 0.8819212913513184 7.680027308554216E-08 0.47139671444892256
vn 0.8819212913513184 7.680027308554216E-08 0.47139671444892256
vn 0.8819212913513184 7.680027308554216E-08 0.47139671444892256
vn 0.8819212913513184 7.680027308554216E-08 0.47139671444892256
vn 0.77301043272018432 1.0335580291620516E-07 0.63439339399336936
vn 0.77301043272018432 1.0335580291620516E-07 0.63439339399336936
vn 0.77301043272018432 1.0335580291620516E-07 0.63439339399336936
vn 0.77301043272018432 1.0335580291620516E-07 0.63439339399336936
vn 0.63439339399337768 1.2593938503169255E-07 0.77301043272017408
vn 0.63439339399337768 1.2593938503169255E-07 0.77301043272017408
vn 0.63439339399337768 1.2593938503169255E-07 0.77301043272017408
vn 0.63439339399337768 1.2593938503169255E-07 0.77301043272017408
vn 0.47139662504196168 1.4368320644386756E-07 0.88192123174666176
vn 0.47139662504196168 1.4368320644386756E-07 0.88192123174666176
vn 0.47139662504196168 1.4368320644386756E-07 0.88192123174666176
vn 0.47139662504196168 1.4368320644386756E-07 0.88192123174666176
vn 0.29028484225273132 1.559053532940169E-07 0.95694023370741536
vn 0.29028484225273132 1.559053532940169E-07 0.95694023370741536
vn 0.29028484225273132 1.559053532940169E-07 0.95694023370741536
vn 0.29028484225273132 1.559053532940169E-07 0.95694023370741536
vn 0.09801694750785828 1.6213617082261322E-07 0.99518471956251728
vn 0.09801694750785828 1.6213617082261322E-07 0.99518471956251728
vn 0.09801694750785828 1.6213617082261322E-07 0.99518471956251728
vn 0.09801694750785828 1.6213617082261322E-07 0.99518471956251728
vn -0.09801706671714782 1.6213617082261322E-07 0.99518471956251728
vn -0.09801706671714782 1.6213617082261322E-07 0.99518471956251728
vn -0.09801706671714782 1.6213617082261322E-07 0.99518471956251728
vn -0.09801706671714782 1.6213617082261322E-07 0.99518471956251728
vn -0.29028484225273132 1.559053532940169E-07 0.95694023370741536
vn -0.29028484225273132 1.559053532940169E-07 0.95694023370741536
vn -0.29028484225273132 1.559053532940169E-07 0.95694023370741536
vn -0.29028484225273132 1.559053532940169E-07 0.95694023370741536
vn -0.4713967740535736 1.4368320644386756E-07 0.88192123174666176
vn -0.4713967740535736 1.4368320644386756E-07 0.88192123174666176
vn -0.4713967740535736 1.4368320644386756E-07 0.88192123174666176
vn -0.4713967740535736 1.4368320644386756E-07 0.88192123174666176
vn -0.63439327478408816 1.2593939480165517E-07 0.77301049232481888
vn -0.63439327478408816 1.2593939480165517E-07 0.77301049232481888
vn -0.63439327478408816 1.2593939480165517E-07 0.77301049232481888
vn -0.63439327478408816 1.2593939480165517E-07 0.77301049232481888
vn -0.77301031351089472 1.0335581257514548E-07 0.634393453598014
vn -0.77301031351089472 1.0335581257514548E-07 0.634393453598014
vn -0.77301031351089472 1.0335581257514548E-07 0.634393453598014
vn -0.77301031351089472 1.0335581257514548E-07 0.634393453598014
vn -0.881921112537384 7.68003313167398E-08 0.4713970720767912
vn -0.881921112537384 7.68003313167398E-08 0.4713970720767912
vn -0.881921112537384 7.68003313167398E-08 0.4713970720767912
vn -0.881921112537384 7.68003313167398E-08 0.4713970720767912
vn -0.95694041252136224 4.7293360116995586E-08 0.290284574031826
vn -0.95694041252136224 4.7293360116995586E-08 0.290284574031826
vn -0.95694041252136224 4.7293360116995586E-08 0.290284574031826
vn -0.95694041252136224 4.7293360116995586E-08 0.290284574031826
vn -0.99518471956253056 1.596903746736711E-08 0.09801725298166144
vn -0.99518471956253056 1.596903746736711E-08 0.09801725298166144
vn -0.99518471956253056 1.596903746736711E-08 0.09801725298166144
vn -0.99518471956253056 1.596903746736711E-08 0.09801725298166144
vn -0.99518471956253056 -1.596903746736711E-08 -0.09801725298166144
vn -0.99518471956253056 -1.596903746736711E-08 -0.09801725298166144
vn -0.99518471956253056 -1.596903746736711E-08 -0.09801725298166144
vn -0.99518471956253056 -1.596903746736711E-08 -0.09801725298166144
vn -0.9569402933120728 -4.7293403748760454E-08 -0.29028484225272744
vn -0.9569402933120728 -4.7293403748760454E-08 -0.29028484225272744
vn -0.9569402933120728 -4.7293403748760454E-08 -0.29028484225272744
vn -0.9569402933120728 -4.7293403748760454E-08 -0.29028484225272744
vn -0.8819212317466736 -7.6800268256072E-08 -0.47139668464660024
vn -0.8819212317466736 -7.6800268256072E-08 -0.47139668464660024
vn -0.8819212317466736 -7.6800268256072E-08 -0.47139668464660024
vn -0.8819212317466736 -7.6800268256072E-08 -0.47139668464660024
vn -0.77301067113876336 -1.0335574462949637E-07 -0.63439303636550072
vn -0.77301067113876336 -1.0335574462949637E-07 -0.63439303636550072
vn -0.77301067113876336 -1.0335574462949637E-07 -0.63439303636550072
vn -0.77301067113876336 -1.0335574462949637E-07 -0.63439303636550072
vn -0.63439339399337768 -1.2593938503169255E-07 -0.77301043272017408
vn -0.63439339399337768 -1.2593938503169255E-07 -0.77301043272017408
vn -0.63439339399337768 -1.2593938503169255E-07 -0.77301043272017408
vn -0.63439339399337768 -1.2593938503169255E-07 -0.77301043272017408
vn -0.4713967740535736 -1.4368320644386756E-07 -0.88192123174666176
vn -0.4713967740535736 -1.4368320644386756E-07 -0.88192123174666176
vn -0.4713967740535736 -1.4368320644386756E-07 -0.88192123174666176
vn -0.4713967740535736 -1.4368320644386756E-07 -0.88192123174666176
vn 4.773802686486306E-08 0.99999999999998672 -1.6292067961387602E-07
vn 4.773802686486306E-08 0.99999999999998672 -1.6292067961387602E-07
vn 4.773802686486306E-08 0.99999999999998672 -1.6292067961387602E-07
vn 4.773802686486306E-08 0.99999999999998672 -1.6292067961387602E-07
vn 4.773802686486306E-08 0.99999999999998672 -1.6292067961387602E-07
vn 4.773802686486306E-08 0.99999999999998672 -1.6292067961387602E-07
vn 4.773802686486306E-08 0.99999999999998672 -1.6292067961387602E-07
vn 4.773802686486306E-08 0.99999999999998672 -1.6292067961387602E-07
vn 4.773802686486306E-08 0.99999999999998672 -1.6292067961387602E-07
vn 4.773802686486306E-08 0.99999999999998672 -1.6292067961387602E-07
vn 4.773802686486306E-08 0.99999999999998672 -1.6292067961387602E-07
vn 4.773802686486306E-08 0.99999999999998672 -1.6292067961387602E-07
vn 4.773802686486306E-08 0.99999999999998672 -1.6292067961387602E-07
vn 4.773802686486306E-08 0.99999999999998672 -1.6292067961387602E-07
vn 4.773802686486306E-08 0.99999999999998672 -1.6292067961387602E-07
vn 4.773802686486306E-08 0.99999999999998672 -1.6292067961387602E-07
vn 4.773802686486306E-08 0.99999999999998672 -1.6292067961387602E-07
vn 4.773802686486306E-08 0.99999999999998672 -1.6292067961387602E-07
vn 4.773802686486306E-08 0.99999999999998672 -1.6292067961387602E-07
vn 4.773802686486306E-08 0.99999999999998672 -1.6292067961387602E-07
vn 4.773802686486306E-08 0.99999999999998672 -1.6292067961387602E-07
vn 4.773802686486306E-08 0.99999999999998672 -1.6292067961387602E-07
vn 4.773802686486306E-08 0.99999999999998672 -1.6292067961387602E-07
vn 4.773802686486306E-08 0.99999999999998672 -1.6292067961387602E-07
vn 4.773802686486306E-08 0.99999999999998672 -1.6292067961387602E-07
vn 4.773802686486306E-08 0.99999999999998672 -1.6292067961387602E-07
vn 4.773802686486306E-08 0.99999999999998672 -1.6292067961387602E-07
vn 4.773802686486306E-08 0.99999999999998672 -1.6292067961387602E-07
vn 4.773802686486306E-08 0.99999999999998672 -1.6292067961387602E-07
vn 4.773802686486306E-08 0.99999999999998672 -1.6292067961387602E-07
vn 4.773802686486306E-08 0.99999999999998672 -1.6292067961387602E-07
vn 4.773802686486306E-08 0.99999999999998672 -1.6292067961387602E-07
vn -0.29028457403182984 -1.5590538238186014E-07 -0.9569404125213496
vn -0.29028457403182984 -1.5590538238186014E-07 -0.9569404125213496
vn -0.29028457403182984 -1.5590538238186014E-07 -0.9569404125213496
vn -0.29028457403182984 -1.5590538238186014E-07 -0.9569404125213496
vn -0.09801703691482544 -1.6213617082261322E-07 -0.99518471956251728
vn -0.09801703691482544 -1.6213617082261322E-07 -0.99518471956251728
vn -0.09801703691482544 -1.6213617082261322E-07 -0.99518471956251728
vn -0.09801703691482544 -1.6213617082261322E-07 -0.99518471956251728
vn 2.8642810789847317E-08 -0.99999994039534208 1.62920670065958E-07
vn 2.8642810789847317E-08 -0.99999994039534208 1.62920670065958E-07
vn 2.8642810789847317E-08 -0.99999994039534208 1.62920670065958E-07
vn 2.8642810789847317E-08 -0.99999994039534208 1.62920670065958E-07
vn 2.8642810789847317E-08 -0.99999994039534208 1.62920670065958E-07
vn 2.8642810789847317E-08 -0.99999994039534208 1.62920670065958E-07
vn 2.8642810789847317E-08 -0.99999994039534208 1.62920670065958E-07
vn 2.8642810789847317E-08 -0.99999994039534208 1.62920670065958E-07
vn 2.8642810789847317E-08 -0.99999994039534208 1.62920670065958E-07
vn 2.8642810789847317E-08 -0.99999994039534208 1.62920670065958E-07
vn 2.8642810789847317E-08 -0.99999994039534208 1.62920670065958E-07
vn 2.8642810789847317E-08 -0.99999994039534208 1.62920670065958E-07
vn 2.8642810789847317E-08 -0.99999994039534208 1.62920670065958E-07
vn 2.8642810789847317E-08 -0.99999994039534208 1.62920670065958E-07
vn 2.8642810789847317E-08 -0.99999994039534208 1.62920670065958E-07
vn 2.8642810789847317E-08 -0.99999994039534208 1.62920670065958E-07
vn 2.8642810789847317E-08 -0.99999994039534208 1.62920670065958E-07
vn 2.8642810789847317E-08 -0.99999994039534208 1.62920670065958E-07
vn 2.8642810789847317E-08 -0.99999994039534208 1.62920670065958E-07
vn 2.8642810789847317E-08 -0.99999994039534208 1.62920670065958E-07
vn 2.8642810789847317E-08 -0.99999994039534208 1.62920670065958E-07
vn 2.8642810789847317E-08 -0.99999994039534208 1.62920670065958E-07
vn 2.8642810789847317E-08 -0.99999994039534208 1.62920670065958E-07
vn 2.8642810789847317E-08 -0.99999994039534208 1.62920670065958E-07
vn 2.8642810789847317E-08 -0.99999994039534208 1.62920670065958E-07
vn 2.8642810789847317E-08 -0.99999994039534208 1.62920670065958E-07
vn 2.8642810789847317E-08 -0.99999994039534208 1.62920670065958E-07
vn 2.8642810789847317E-08 -0.99999994039534208 1.62920670065958E-07
vn 2.8642810789847317E-08 -0.99999994039534208 1.62920670065958E-07
vn 2.8642810789847317E-08 -0.99999994039534208 1.62920670065958E-07
vn 2.8642810789847317E-08 -0.99999994039534208 1.62920670065958E-07
vn 2.8642810789847317E-08 -0.99999994039534208 1.62920670065958E-07
# 192 vertex normals

vt 0.1875 1 0
vt 0.28125 1 0
vt 0.90625 1 0
vt 0.125 1 0
vt 0 0.5 0
vt 0.21875 0.5 0
vt 0.15625 0.5 0
vt 0.1166631281375885 0.44955271482467648 0
vt 0.75 0.4900000095367432 0
vt 0.28125 0.5 0
vt 0.34375 0.5 0
vt 0.84375 1 0
vt 0.78125 1 0
vt 0.96875 1 0
vt 0.01000000536441803 0.25 0
vt 0.514611542224884 0.2031783163547516 0
vt 0.875 0.5 0
vt 0.71875 0.5 0
vt 0.703178346157074 0.01461152732372284 0
vt 0.02826891839504242 0.15815594792366028 0
vt 0.75 0.01000000536441803 0
vt 0.514611542224884 0.2968217134475708 0
vt 0.94955271482467648 0.38333684206008912 0
vt 0.34184402227401732 0.02826891839504242 0
vt 0.3125 1 0
vt 0.25 1 0
vt 0 1 0
vt 0.4717310667037964 0.34184402227401732 0
vt 0.25 0.5 0
vt 0.625 1 0
vt 0.84184402227401728 0.4717310667037964 0
vt 0.61666309833526608 0.44955271482467648 0
vt 0.78125 0.5 0
vt 0.0625 1 0
vt 0.79682165384292608 0.01461152732372284 0
vt 0.375 1 0
vt 0.985388457775116 0.2031783163547516 0
vt 0.2499999850988388 0.01000000536441803 0
vt 0.90625 0.5 0
vt 0.5282689332962036 0.15815594792366028 0
vt 0.02826893329620361 0.34184405207633972 0
vt 0.5 1 0
vt 0.34184402227401732 0.4717310667037964 0
vt 0.4375 1 0
vt 0.985388457775116 0.2968216836452484 0
vt 0.65625 0.5 0
vt 0.5 0.5 0
vt 0.4375 0.5 0
vt 0.485388457775116 0.2968216836452484 0
vt 0.2968216836452484 0.01461152732372284 0
vt 0.44955271482467648 0.11666315793991088 0
vt 0.125 0.5 0
vt 0.0625 0.5 0
vt 0.485388457775116 0.2031783163547516 0
vt 0.01461154222488403 0.2031783163547516 0
vt 0.96875 0.5 0
vt 0.1875 0.5 0
vt 0.3125 0.5 0
vt 0.79682165384292608 0.485388457775116 0
vt 0.01461154222488403 0.2968217134475708 0
vt 0.34375 1 0
vt 0.2968216836452484 0.485388457775116 0
vt 0.75 1 0
vt 0.6875 1 0
vt 0.84184402227401728 0.02826891839504242 0
vt 0.91970562934875488 0.08029438555240631 0
vt 0.88333684206008912 0.05044728517532349 0
vt 0.875 1 0
vt 0.05044732987880707 0.11666309833526612 0
vt 0.03125 1 0
vt 0.65815597772598264 0.4717310965061188 0
vt 0.84375 0.5 0
vt 0.44955271482467648 0.38333684206008912 0
vt 0.625 0.5 0
vt 1 1 0
vt 0.4717310965061188 0.15815597772598266 0
vt 0.21875 1 0
vt 0.15625 1 0
vt 0.5625 1 0
vt 0.09375 0.5 0
vt 0.1166631281375885 0.05044731497764587 0
vt 0.05044727027416229 0.38333681225776672 0
vt 0.91970562934875488 0.41970562934875488 0
vt 0.97173106670379632 0.15815597772598266 0
vt 0.375 0.5 0
vt 0.58029437065124512 0.41970559954643248 0
vt 0.55044734477996824 0.11666309833526612 0
vt 0.59375 1 0
vt 0.9375 1 0
vt 0.9900000095367432 0.2499999850988388 0
vt 0.0802944004535675 0.08029437065124512 0
vt 0.15815597772598266 0.4717310965061188 0
vt 0.88333684206008912 0.44955271482467648 0
vt 0.38333684206008912 0.05044728517532349 0
vt 0.75 0.5 0
vt 0.6875 0.5 0
vt 0.8125 1 0
vt 0.38333684206008912 0.44955271482467648 0
vt 0.58029437065124512 0.08029437065124512 0
vt 0.8125 0.5 0
vt 0.94955271482467648 0.11666315793991088 0
vt 0.5099999904632568 0.25 0
vt 0.703178346157074 0.485388457775116 0
vt 0.65815597772598264 0.02826891839504242 0
vt 0.40625 1 0
vt 0.15815597772598266 0.02826891839504242 0
vt 0.09375 1 0
vt 0.5625 0.5 0
vt 0.40625 0.5 0
vt 0.55044728517532352 0.38333681225776672 0
vt 0.08029435575008392 0.41970559954643248 0
vt 0.20317834615707396 0.485388457775116 0
vt 1 0.5 0
vt 0.03125 0.5 0
vt 0.97173106670379632 0.34184402227401732 0
vt 0.71875 1 0
vt 0.9375 0.5 0
vt 0.20317834615707396 0.01461152732372284 0
vt 0.46875 1 0
vt 0.41970562934875488 0.41970562934875488 0
vt 0.65625 1 0
vt 0.61666309833526608 0.05044731497764587 0
vt 0.25 0.4900000095367432 0
vt 0.46875 0.5 0
vt 0.53125 1 0
vt 0.4900000095367432 0.2499999850988388 0
vt 0.5282689332962036 0.34184405207633972 0
vt 0.41970562934875488 0.08029438555240631 0
vt 0.59375 0.5 0
vt 0.53125 0.5 0
# 130 texture coords

g Cylinder
s 1
f 1/113/1 2/75/2 4/14/3 3/56/4
f 3/56/5 4/14/6 6/89/7 5/117/8
f 5/117/9 6/89/10 8/3/11 7/39/12
f 7/39/13 8/3/14 10/68/15 9/17/16
f 9/17/17 10/68/18 12/12/19 11/72/20
f 11/72/21 12/12/22 14/97/23 13/100/24
f 13/100/25 14/97/26 16/13/27 15/33/28
f 15/33/29 16/13/30 18/63/31 17/95/32
f 17/95/33 18/63/34 20/116/35 19/18/36
f 19/18/37 20/116/38 22/64/39 21/96/40
f 21/96/41 22/64/42 24/121/43 23/46/44
f 23/46/45 24/121/46 26/30/47 25/74/48
f 25/74/49 26/30/50 28/88/51 27/129/52
f 27/129/53 28/88/54 30/79/55 29/108/56
f 29/108/57 30/79/58 32/125/59 31/130/60
f 31/130/61 32/125/62 34/42/63 33/47/64
f 33/47/65 34/42/66 36/119/67 35/124/68
f 35/124/69 36/119/70 38/44/71 37/48/72
f 37/48/73 38/44/74 40/105/75 39/109/76
f 39/109/77 40/105/78 42/36/79 41/85/80
f 41/85/81 42/36/82 44/61/83 43/11/84
f 43/11/85 44/61/86 46/25/87 45/58/88
f 45/58/89 46/25/90 48/2/91 47/10/92
f 47/10/93 48/2/94 50/26/95 49/29/96
f 49/29/97 50/26/98 52/77/99 51/6/100
f 51/6/101 52/77/102 54/1/103 53/57/104
f 53/57/105 54/1/106 56/78/107 55/7/108
f 55/7/109 56/78/110 58/4/111 57/52/112
f 57/52/113 58/4/114 60/107/115 59/80/116
f 59/80/117 60/107/118 62/34/119 61/53/120
f 4/62/121 2/123/122 64/112/123 62/92/124 60/8/125 58/111/126 56/82/127 54/41/128 52/60/129 50/15/130 48/55/131 46/20/132 44/69/133 42/91/134 40/81/135 38/106/136 36/118/137 34/38/138 32/50/139 30/24/140 28/94/141 26/128/142 24/51/143 22/76/144 20/54/145 18/126/146 16/49/147 14/28/148 12/73/149 10/120/150 8/98/151 6/43/152
f 61/53/153 62/34/154 64/70/155 63/114/156
f 63/114/157 64/70/158 2/27/159 1/5/160
f 1/9/161 3/59/162 5/31/163 7/93/164 9/83/165 11/23/166 13/115/167 15/45/168 17/90/169 19/37/170 21/84/171 23/101/172 25/66/173 27/67/174 29/65/175 31/35/176 33/21/177 35/19/178 37/104/179 39/122/180 41/99/181 43/87/182 45/40/183 47/16/184 49/102/185 51/22/186 53/127/187 55/110/188 57/86/189 59/32/190 61/71/191 63/103/192
#34 polygons

